<svg width="240" height="240" viewBox="0 0 240 240" fill="none" xmlns="http://www.w3.org/2000/svg">
  <rect width="240" height="240" fill="transparent"/>
  <path d="M0 120C33.137 120 60 93.137 60 60C60 26.863 33.137 0 0 0" stroke="rgba(255,255,255,0.6)" stroke-width="2"/>
  <path d="M60 120C93.137 120 120 93.137 120 60C120 26.863 93.137 0 60 0" stroke="rgba(255,255,255,0.6)" stroke-width="2"/>
  <path d="M120 120C153.137 120 180 93.137 180 60C180 26.863 153.137 0 120 0" stroke="rgba(255,255,255,0.6)" stroke-width="2"/>
  <path d="M180 120C213.137 120 240 93.137 240 60C240 26.863 213.137 0 180 0" stroke="rgba(255,255,255,0.6)" stroke-width="2"/>
  <path d="M0 240C33.137 240 60 213.137 60 180C60 146.863 33.137 120 0 120" stroke="rgba(255,255,255,0.6)" stroke-width="2"/>
  <path d="M60 240C93.137 240 120 213.137 120 180C120 146.863 93.137 120 60 120" stroke="rgba(255,255,255,0.6)" stroke-width="2"/>
  <path d="M120 240C153.137 240 180 213.137 180 180C180 146.863 153.137 120 120 120" stroke="rgba(255,255,255,0.6)" stroke-width="2"/>
  <path d="M180 240C213.137 240 240 213.137 240 180C240 146.863 213.137 120 180 120" stroke="rgba(255,255,255,0.6)" stroke-width="2"/>
</svg>
